<?xml version="1.0" encoding="iso-8859-1"?>
<!-- Generator: Adobe Illustrator 16.0.0, SVG Export Plug-In . SVG Version: 6.00 Build 0)  -->
<!DOCTYPE svg PUBLIC "-//W3C//DTD SVG 1.1//EN" "http://www.w3.org/Graphics/SVG/1.1/DTD/svg11.dtd">
<svg version="1.1" id="Capa_1" xmlns="http://www.w3.org/2000/svg" xmlns:xlink="http://www.w3.org/1999/xlink" x="0px" y="0px"
	 width="189.725px" height="189.725px" viewBox="0 0 189.725 189.725" style="enable-background:new 0 0 189.725 189.725;"
	 xml:space="preserve">
<g>
	<g>
		<path d="M112.703,12.209c-1.405-3.553-3.822-6.638-7.471-8.748c-1.387-0.801-2.783-1.35-4.178-1.695
			C96.97,0.084,92.388-0.42,87.608,0.355c-21.487,3.487-27.597,33.089-8.88,43.769c5.806,3.313,17.978,5.163,24.773,1.866
			c4.167-0.936,7.916-3.299,10.623-7.077C119.761,31.051,117.265,19.955,112.703,12.209z"/>
		<path d="M57.595,41.947c-0.283-3.619-1.864-7.103-4.235-9.897c-0.321-0.733-0.679-1.442-1.092-2.109
			c-4.732-7.653-13.913-7.003-21.186-3.91c-9.08,3.862-12.511,13.844-10.447,22.938c1.921,8.454,9.287,15.215,18.029,15.381
			C50.41,64.573,58.44,52.715,57.595,41.947z"/>
		<path d="M128.755,90.472c-0.108-8.433,0.187-17.614-2.546-25.695c-4.021-11.894-17.353-12.543-27.915-13.038
			c-11.533-0.541-28.531-2.116-36.068,9.037c-9.732,14.398-6.897,37.548-5.605,53.859c0.199,2.518,3.003,3.075,4.338,1.664
			c0.013,0.003,0.026,0.003,0.04,0.006c1.299,1.376,1.977,1.269,4.794,1.404c1.376,0.066,2.197-1.12,2.334-2.334
			c1.275-11.243-2.976-29.565,7.567-36.255c-0.007,0.436-0.008,0.875-0.011,1.313c-0.168,0.254-0.307,0.543-0.386,0.887
			c-0.168,0.724-0.146,1.237-0.076,1.934c0.229,14.167,1.411,28.26,1.143,42.472c-0.376,19.812,1.62,40.222-0.804,59.894
			c-0.04,0.32,0.01,0.596,0.106,0.843c-0.318,0.688-0.051,1.642,0.85,1.979c2.876,1.079,5.459,0.769,8.53,1.238
			c1.729,0.265,3.34-0.693,3.391-2.582c0.266-10.103,1.366-20.236,2.071-30.315c0.295-4.227,0.37-8.585,0.162-12.815
			c-0.081-0.978-0.166-1.955-0.255-2.931c-0.03-0.331-0.053-0.61-0.073-0.86c0.641-0.117,1.247-0.264,1.693-0.312
			c2.351-0.258,4.499-0.147,6.727,0.46c0.448,6.001,1.188,11.962,1.089,18.073c-0.155,9.547-0.941,19.168-0.177,28.701
			c0.129,1.611,1.852,1.951,2.727,1.08c2.382,0.943,5.507,1.676,7.593-0.063c0.077-0.065,0.117-0.145,0.181-0.214
			c1.047,0.49,2.474,0.019,2.534-1.542c1.388-35.634,6.238-72.424,0.304-107.834c1.306,0.382,2.525,0.997,3.59,2.019
			c2.651,2.548,1.997,7.905,1.827,11.175c-0.404,7.855-2.162,17.012,2.275,24.101c0.637,1.018,1.794,1.254,2.766,0.962
			c1.547,0.519,3.358-0.001,3.743-2.058C128.714,106.711,128.861,98.605,128.755,90.472z"/>
		<path d="M171.496,34.543c-1.455-12.344-18.521-22.357-29.055-14.004c-4.249,3.369-6.162,9.061-6.477,14.866
			c-1.185,5.069-0.246,10.612,2.761,14.825c1.705,3.41,4.323,6.254,8.088,7.455c2.654,0.848,5.319,0.444,7.808-0.578
			C164.322,55.575,172.786,45.487,171.496,34.543z"/>
		<path d="M55.579,124.249c-0.059-1.253-0.889-2.78-2.272-2.985c-1.856-0.274-3.548-0.6-5.289-0.764
			c-0.418-7.429-0.63-14.867-0.597-22.309c0.031-6.995-1.039-18.149,3.305-24.135c0.376-0.518,0.536-1.029,0.562-1.515
			c1.003-1.254,0.821-3.447-1.12-3.863c-11.499-2.469-32.588-8.243-39.703,4.832c-6.726,12.359-2.641,29.993-2.452,43.345
			c0.02,1.325,0.916,2.638,2.248,2.952c2.285,0.54,4.374,0.808,6.73,0.843c1.237,0.019,2.746-0.936,2.947-2.243
			c1.276-8.348-1.562-16.85,0.169-25.117c1.26-6.025,2.825-4.196,3.643-0.131c0.646,3.202,0.693,6.562,0.749,9.817
			c0.161,9.46-1.06,19.017-1.46,28.47c-0.596,14.107-0.664,28.231-0.215,42.346c0.044,1.362,0.897,2.558,2.231,2.931
			c3.378,0.944,6.297,1.283,9.748,0.733c1.395-0.222,2.117-1.684,2.228-2.925c1.289-14.536,0.864-29.11,0.772-43.683
			c1.431,0.015,2.846,0.137,4.271,0.368c0.262,14.697-1.341,29.353-0.826,44.055c0.055,1.567,1.373,3.26,3.102,3.1
			c2.718-0.251,6.781-0.326,8.845-2.389c2.446-2.445,2.108-10.288,2.425-13.565C56.835,149.757,56.17,136.921,55.579,124.249z
			 M14.256,114.397c-0.062-0.009-0.123-0.021-0.184-0.03c-0.113-3.922-0.341-7.848-0.524-11.771
			C13.866,106.661,14.414,110.746,14.256,114.397z"/>
		<path d="M178.9,73.948c-5.887-12.958-28.205-13.373-39.209-7.859c-4.544,2.277-6.254,5.522-6.332,10.527
			c-0.182,11.64,1.837,23.386,1.954,35.062c0.098,9.756-5.177,18.336-6.663,27.864c-1.772,11.356-0.535,22.869,0.243,34.247
			c0.097,1.421,1.28,2.018,2.326,1.842c0.034,0.007,0.058,0.029,0.094,0.034c2.499,0.393,5.152,0.841,7.68,0.878
			c1.572,0.023,2.662-1.274,2.755-2.755c0.867-13.839,0.866-27.727,0.886-41.59c2.387-0.108,4.747-0.164,7.156,0.105
			c-0.868,13.843,0.944,27.629,1.096,41.484c0.017,1.444,1.312,3.074,2.896,2.896c1.976-0.222,3.93-0.57,5.916-0.72
			c1.237-0.093,2.539-0.812,2.811-2.14c3.522-17.208,0.388-34.45,0.17-51.795c-0.134-10.773,3.882-22.881,2.021-33.783
			c0.139-0.167,0.242-0.365,0.334-0.581c1.216,2.55,1.767,5.609,2.312,8.306c1.151,5.696,2.347,12.789,1.255,18.596
			c-0.298,1.579,0.413,3.327,2.12,3.734c1.601,0.382,3.427,0.55,4.924,0.039c1.513,1.127,4.052,0.926,4.649-1.441
			C183.74,103.28,184.831,87.002,178.9,73.948z"/>
	</g>
</g>
<g>
</g>
<g>
</g>
<g>
</g>
<g>
</g>
<g>
</g>
<g>
</g>
<g>
</g>
<g>
</g>
<g>
</g>
<g>
</g>
<g>
</g>
<g>
</g>
<g>
</g>
<g>
</g>
<g>
</g>
</svg>
