<?xml version="1.0" encoding="iso-8859-1"?>
<!-- Generator: Adobe Illustrator 19.0.0, SVG Export Plug-In . SVG Version: 6.00 Build 0)  -->
<svg version="1.1" id="Layer_1" xmlns="http://www.w3.org/2000/svg" xmlns:xlink="http://www.w3.org/1999/xlink" x="0px" y="0px"
	 viewBox="0 0 512 512" style="enable-background:new 0 0 512 512;" xml:space="preserve">
<g>
	<g>
		<g>
			<path d="M221.867,51.2h25.6v42.667c0,4.71,3.823,8.533,8.533,8.533s8.533-3.823,8.533-8.533V51.2h25.6
				c4.71,0,8.533-3.823,8.533-8.533c0-4.71-3.823-8.533-8.533-8.533h-25.6v-25.6C264.533,3.823,260.71,0,256,0
				s-8.533,3.823-8.533,8.533v25.6h-25.6c-4.71,0-8.533,3.823-8.533,8.533C213.333,47.377,217.156,51.2,221.867,51.2z"/>
			<path d="M130.987,460.8h-88.32c-4.25,0-8.533-2.637-8.533-8.533c0-32.119,7.851-47.821,16.171-64.452
				c8.832-17.664,17.963-35.934,17.963-72.081c0-4.71-3.823-8.533-8.533-8.533c-4.702,0-8.533-3.831-8.533-8.533
				s3.831-8.533,8.533-8.533H128c4.702,0,8.533,3.831,8.533,8.533S132.702,307.2,128,307.2H93.858c-4.71,0-8.533,3.823-8.533,8.533
				s3.823,8.533,8.533,8.533H128c14.114,0,25.6-11.486,25.6-25.6c0-11.844-8.124-21.734-19.055-24.644
				C146.236,263.108,153.6,247.62,153.6,230.4c0-32.939-26.795-59.733-59.733-59.733c-32.939,0-59.733,26.795-59.733,59.733
				c0,8.619,1.843,16.998,5.487,24.9c1.971,4.284,7.049,6.153,11.315,4.181c4.284-1.971,6.153-7.04,4.181-11.315
				c-2.603-5.649-3.917-11.631-3.917-17.766c0-23.526,19.14-42.667,42.667-42.667c23.526,0,42.667,19.14,42.667,42.667
				c0,23.526-19.14,42.667-42.667,42.667H59.733c-14.114,0-25.6,11.486-25.6,25.6c0,11.076,7.074,20.531,16.93,24.09
				c-1.058,27.477-8.346,42.061-16.034,57.429c-8.832,17.664-17.963,35.934-17.963,72.081c0,3.422,0.657,6.622,1.766,9.557
				C8.013,464.811,0,474.641,0,486.4v17.067C0,508.177,3.823,512,8.533,512H128c4.71,0,8.533-3.823,8.533-8.533
				s-3.823-8.533-8.533-8.533H17.067V486.4c0-4.702,3.831-8.533,8.533-8.533h17.067h88.32c4.71,0,8.533-3.823,8.533-8.533
				S135.697,460.8,130.987,460.8z"/>
			<path d="M199.091,202.146c0.888,4.625,5.342,7.654,9.993,6.767c4.625-0.896,7.654-5.367,6.758-9.993l-9.515-49.348
				c8.439-4.489,27.264-12.86,50.202-12.86c22.733,0,41.609,8.346,50.133,12.843l-16.35,79.113
				c-0.521,2.517,0.119,5.129,1.741,7.117c1.621,1.997,4.045,3.149,6.613,3.149c4.702,0,8.533,3.831,8.533,8.533
				c0,4.702-3.831,8.533-8.533,8.533h-51.2c-4.71,0-8.533,3.823-8.533,8.533c0,4.71,3.823,8.533,8.533,8.533h51.2
				c14.114,0,25.6-11.486,25.6-25.6c0-10.547-6.409-19.627-15.548-23.543l15.906-76.945c0.708-3.413-0.725-6.903-3.627-8.832
				c-1.135-0.751-28.169-18.5-64.469-18.5c-36.292,0-63.326,17.749-64.461,18.5c-2.859,1.903-4.301,5.342-3.644,8.713
				L199.091,202.146z"/>
			<path d="M339.507,461.807c1.152-2.944,1.826-6.144,1.826-9.54c0-32.094-7.262-53.495-14.942-76.16
				c-7.526-22.187-15.309-45.133-18.125-82.014c-0.358-4.693-4.446-8.226-9.156-7.859c-4.702,0.358-8.218,4.463-7.859,9.165
				c2.978,39.014,11.477,64.077,18.978,86.187c7.535,22.221,14.037,41.404,14.037,70.682c0,5.026-3.507,8.533-8.533,8.533H230.4
				c-4.71,0-8.533,3.823-8.533,8.533s3.823,8.533,8.533,8.533h102.4c4.702,0,8.533,3.831,8.533,8.533v8.533H170.667V486.4
				c0-4.702,3.831-8.533,8.533-8.533h17.067c4.71,0,8.533-3.823,8.533-8.533s-3.823-8.533-8.533-8.533
				c-4.25,0-8.533-2.637-8.533-8.533c0-29.278,6.502-48.469,14.037-70.682c9.421-27.785,20.096-59.273,20.096-117.052
				c0-4.71-3.823-8.533-8.533-8.533c-4.702,0-8.533-3.831-8.533-8.533c0-4.702,3.831-8.533,8.533-8.533h51.2
				c4.71,0,8.533-3.823,8.533-8.533s-3.823-8.533-8.533-8.533h-51.2c-14.114,0-25.6,11.486-25.6,25.6
				c0,11.102,7.108,20.582,17.007,24.115c-0.828,50.534-10.53,79.147-19.132,104.525c-7.68,22.656-14.942,44.066-14.942,76.16
				c0,3.379,0.589,6.562,1.672,9.464c-10.795,3.004-18.739,12.928-18.739,24.67v17.067c0,4.71,3.823,8.533,8.533,8.533h187.733
				c4.71,0,8.533-3.823,8.533-8.533V486.4C358.4,474.624,350.362,464.777,339.507,461.807z"/>
			<path d="M493.107,461.807c1.152-2.944,1.826-6.144,1.826-9.54c0-36.147-9.131-54.417-17.963-72.081
				c-5.521-11.051-10.743-21.478-13.696-36.497c-0.913-4.625-5.376-7.68-10.027-6.724c-4.617,0.913-7.629,5.402-6.716,10.027
				c3.396,17.28,9.378,29.244,15.164,40.823c8.32,16.631,16.171,32.333,16.171,64.452c0,5.026-3.507,8.533-8.533,8.533h-88.32
				c-4.71,0-8.533,3.823-8.533,8.533s3.823,8.533,8.533,8.533h88.32H486.4c4.702,0,8.533,3.831,8.533,8.533v8.533H384
				c-4.71,0-8.533,3.823-8.533,8.533S379.29,512,384,512h119.467c4.71,0,8.533-3.823,8.533-8.533V486.4
				C512,474.624,503.962,464.777,493.107,461.807z"/>
			<path d="M159.804,395.136c-2.253-5.231-4.676-10.086-7.1-14.95c-5.521-11.042-10.744-21.478-13.696-36.497
				c-0.913-4.625-5.402-7.68-10.018-6.724c-4.625,0.913-7.637,5.402-6.724,10.018c3.396,17.289,9.378,29.261,15.172,40.841
				c2.287,4.565,4.574,9.131,6.682,14.046c1.382,3.234,4.531,5.171,7.842,5.171c1.118,0,2.261-0.222,3.362-0.691
				C159.65,404.489,161.655,399.471,159.804,395.136z"/>
			<path d="M392.533,315.733c0-4.71-3.823-8.533-8.533-8.533c-4.702,0-8.533-3.831-8.533-8.533s3.831-8.533,8.533-8.533h68.267
				c4.702,0,8.533,3.831,8.533,8.533s-3.831,8.533-8.533,8.533h-34.142c-4.71,0-8.533,3.823-8.533,8.533s3.823,8.533,8.533,8.533
				h34.142c14.114,0,25.6-11.486,25.6-25.6c0-11.844-8.124-21.734-19.055-24.644c11.691-10.914,19.055-26.402,19.055-43.622
				c0-32.939-26.795-59.733-59.733-59.733S358.4,197.461,358.4,230.4c0,8.619,1.843,16.998,5.487,24.9
				c1.971,4.284,7.04,6.153,11.315,4.181c4.284-1.971,6.153-7.04,4.181-11.315c-2.603-5.649-3.917-11.631-3.917-17.766
				c0-23.526,19.14-42.667,42.667-42.667c23.526,0,42.667,19.14,42.667,42.667c0,23.526-19.14,42.667-42.667,42.667H384
				c-14.114,0-25.6,11.486-25.6,25.6c0,11.076,7.074,20.531,16.93,24.09c-1.058,27.511-8.346,42.112-16.034,57.506
				c-2.423,4.855-4.838,9.711-7.083,14.933c-1.852,4.326,0.145,9.344,4.48,11.204c1.101,0.469,2.236,0.691,3.362,0.691
				c3.311,0,6.46-1.937,7.842-5.171c2.108-4.915,4.386-9.472,6.673-14.029C383.403,370.193,392.533,351.906,392.533,315.733z"/>
		</g>
	</g>
</g>
<g>
</g>
<g>
</g>
<g>
</g>
<g>
</g>
<g>
</g>
<g>
</g>
<g>
</g>
<g>
</g>
<g>
</g>
<g>
</g>
<g>
</g>
<g>
</g>
<g>
</g>
<g>
</g>
<g>
</g>
</svg>
